<?xml version="1.0" encoding="UTF-8" standalone="no"?>
<svg
   xmlns:dc="http://purl.org/dc/elements/1.1/"
   xmlns:cc="http://creativecommons.org/ns#"
   xmlns:rdf="http://www.w3.org/1999/02/22-rdf-syntax-ns#"
   xmlns:svg="http://www.w3.org/2000/svg"
   xmlns="http://www.w3.org/2000/svg"
   xmlns:sodipodi="http://sodipodi.sourceforge.net/DTD/sodipodi-0.dtd"
   xmlns:inkscape="http://www.inkscape.org/namespaces/inkscape"
   version="1.1"
   x="0px"
   y="0px"
   width="160"
   height="40"
   viewBox="0, 0, 160, 40"
   id="svg2"
   inkscape:version="0.48.4 r9939"
   sodipodi:docname="bitcoinjlogo.svg">
  <metadata
     id="metadata41">
    <rdf:RDF>
      <cc:Work
         rdf:about="">
        <dc:format>image/svg+xml</dc:format>
        <dc:type
           rdf:resource="http://purl.org/dc/dcmitype/StillImage" />
      </cc:Work>
    </rdf:RDF>
  </metadata>
  <sodipodi:namedview
     pagecolor="#ffffff"
     bordercolor="#666666"
     borderopacity="1"
     objecttolerance="10"
     gridtolerance="10"
     guidetolerance="10"
     inkscape:pageopacity="0"
     inkscape:pageshadow="2"
     inkscape:window-width="1615"
     inkscape:window-height="1026"
     id="namedview39"
     showgrid="false"
     inkscape:zoom="5.4447222"
     inkscape:cx="36.565211"
     inkscape:cy="62.317449"
     inkscape:window-x="65"
     inkscape:window-y="24"
     inkscape:window-maximized="1"
     inkscape:current-layer="svg2" />
  <defs
     id="defs37" />
  <g
     id="g3936"
     transform="translate(-8.4415584,0)">
    <g
       id="text5">
      <path
         id="path3922"
         style="font-size:32.90499878px;fill:#0f7964;font-family:NanumGothic"
         d="m 53.771497,22.898945 c 0.02192,-0.921331 -0.06583,-1.820734 -0.26324,-2.69821 -0.175509,-0.877455 -0.471654,-1.667174 -0.888435,-2.36916 -0.416811,-0.701959 -0.976196,-1.261344 -1.678155,-1.678154 -0.680049,-0.438719 -1.52461,-0.658085 -2.533685,-0.6581 -0.899413,1.5e-5 -1.689132,0.197444 -2.36916,0.59229 -0.658108,0.372937 -1.206524,0.899416 -1.64525,1.579439 -0.438739,0.680049 -0.767789,1.469768 -0.98715,2.36916 -0.219372,0.899413 -0.329055,1.853657 -0.32905,2.862735 -5e-6,0.987157 0.131615,1.941401 0.39486,2.862735 0.285171,0.899407 0.658094,1.689126 1.11877,2.36916 0.482599,0.680038 1.041984,1.228455 1.678155,1.64525 0.658091,0.39486 1.371032,0.59229 2.138825,0.59229 1.009075,0 1.853636,-0.208398 2.533685,-0.625195 0.701959,-0.438732 1.261344,-1.009085 1.678155,-1.71106 0.416781,-0.70197 0.712926,-1.502658 0.888435,-2.402065 0.197414,-0.899397 0.28516,-1.809768 0.26324,-2.731115 M 40.872737,6.0844909 c -3e-6,-0.3070886 0.153554,-0.4606451 0.46067,-0.46067 l 1.283295,0 c 0.307108,2.49e-5 0.460665,0.1535814 0.46067,0.46067 l 0,10.4966951 c 0.548411,-0.899389 1.327162,-1.61233 2.336255,-2.138825 1.009078,-0.5484 2.138815,-0.822608 3.389215,-0.822625 4.891861,1.7e-5 7.337796,3.093083 7.337814,9.279209 0.02192,1.22846 -0.109701,2.413039 -0.39486,3.55374 -0.263257,1.118773 -0.70199,2.105922 -1.316199,2.96145 -0.614243,0.85553 -1.392994,1.535566 -2.336255,2.04011 -0.921354,0.526478 -2.018186,0.789718 -3.2905,0.78972 -2.632408,-2e-6 -4.540896,-1.118771 -5.72547,-3.35631 l 0,2.56659 c -5e-6,0.307112 -0.153562,0.460669 -0.46067,0.46067 l -1.283295,0 c -0.307116,-1e-6 -0.460673,-0.153558 -0.46067,-0.46067 l 0,-25.3697541"
         inkscape:connector-curvature="0" />
      <path
         id="path3924"
         style="font-size:32.90499878px;fill:#0f7964;font-family:NanumGothic"
         d="m 63.329371,31.454245 c -6e-6,0.307112 -0.153562,0.460669 -0.46067,0.46067 l -1.44782,0 c -0.307117,-1e-6 -0.460673,-0.153558 -0.46067,-0.46067 l 0,-16.880264 c -3e-6,-0.307097 0.153553,-0.460654 0.46067,-0.46067 l 1.44782,0 c 0.307108,1.6e-5 0.460664,0.153573 0.46067,0.46067 l 0,16.880264 M 60.532446,7.8942658 c -3e-6,-0.4387102 0.153554,-0.8116332 0.46067,-1.1187699 0.30711,-0.329026 0.680033,-0.4935508 1.11877,-0.493575 0.438729,2.42e-5 0.811651,0.164549 1.11877,0.493575 0.329044,0.3071367 0.493569,0.6800597 0.493575,1.1187699 -6e-6,0.4387555 -0.164531,0.8116785 -0.493575,1.11877 -0.307119,0.3071345 -0.680041,0.460691 -1.11877,0.46067 -0.438737,2.1e-5 -0.81166,-0.1535355 -1.11877,-0.46067 C 60.686,8.7059443 60.532443,8.3330213 60.532446,7.8942658"
         inkscape:connector-curvature="0" />
      <path
         id="path3926"
         style="font-size:32.90499878px;fill:#0f7964;font-family:NanumGothic"
         d="m 77.254355,31.94782 c -0.921351,0.329048 -1.831721,0.493573 -2.731115,0.493575 -1.776877,-2e-6 -2.950487,-0.581323 -3.520835,-1.743965 -0.372928,-0.789719 -0.55939,-2.182696 -0.559385,-4.178935 l 0,-10.496694 -3.09307,0 c -0.307114,1.4e-5 -0.460671,-0.153542 -0.46067,-0.46067 l 0,-0.98715 c -10e-7,-0.307097 0.153556,-0.460654 0.46067,-0.46067 l 3.09307,0 0,-4.4421752 c -5e-6,-0.3290289 0.142584,-0.4935537 0.427765,-0.493575 l 1.38201,0 c 0.28517,2.13e-5 0.427758,0.1645461 0.427765,0.493575 l 0,4.4421752 3.652455,0 c 0.307102,1.6e-5 0.460659,0.153573 0.46067,0.46067 l 0,0.98715 c -1.1e-5,0.307128 -0.153568,0.460684 -0.46067,0.46067 l -3.652455,0 0,11.615464 c -7e-6,1.952364 0.789712,2.928545 2.36916,2.928545 0.614217,0 1.305221,-0.13162 2.073015,-0.39486 0.109672,-0.04387 0.208387,-0.04387 0.296145,0 0.109671,0.04387 0.164513,0.13162 0.164525,0.26324 l 0.06581,0.85553 c 0.04386,0.307112 -0.08776,0.526479 -0.39486,0.6581"
         inkscape:connector-curvature="0" />
      <path
         id="path3928"
         style="font-size:32.90499878px;fill:#0f7964;font-family:NanumGothic"
         d="m 92.334099,32.046535 c -0.658114,0.109682 -1.294276,0.18646 -1.90849,0.230335 -0.614238,0.04387 -1.349116,0.06581 -2.204635,0.06581 -1.360082,-2e-6 -2.577566,-0.241305 -3.652454,-0.72391 -1.052966,-0.482607 -1.952368,-1.140707 -2.69821,-1.9743 -0.723914,-0.833592 -1.283298,-1.820741 -1.678155,-2.96145 -0.394862,-1.140702 -0.592292,-2.369154 -0.59229,-3.68536 -2e-6,-1.338127 0.208396,-2.56658 0.625195,-3.68536 0.416794,-1.140694 1.009083,-2.116875 1.77687,-2.928544 0.789715,-0.833579 1.722022,-1.48071 2.796925,-1.941395 1.096825,-0.482591 2.325277,-0.723894 3.685359,-0.72391 0.723899,1.6e-5 1.381998,0.03292 1.9743,0.09872 0.592277,0.04389 1.22844,0.142604 1.90849,0.296145 0.307099,0.08776 0.449687,0.296161 0.427765,0.625195 l -0.09871,1.05296 c -0.04389,0.263254 -0.208413,0.361969 -0.493575,0.296145 -0.570367,-0.175479 -1.118783,-0.296131 -1.64525,-0.361955 -0.526492,-0.08773 -1.107813,-0.131606 -1.743965,-0.13162 -1.118779,1.4e-5 -2.105928,0.186476 -2.961449,0.559385 -0.833601,0.351 -1.535574,0.855543 -2.10592,1.513629 -0.570359,0.658113 -0.998124,1.447832 -1.283295,2.36916 -0.285181,0.899413 -0.42777,1.886562 -0.427765,2.96145 -5e-6,0.987157 0.142584,1.930432 0.427765,2.82983 0.307108,0.899407 0.734873,1.700095 1.283295,2.402065 0.570346,0.680038 1.250382,1.228454 2.04011,1.64525 0.811647,0.39486 1.732986,0.59229 2.764019,0.59229 0.767772,0 1.403935,-0.0329 1.90849,-0.09872 0.504531,-0.06581 1.074883,-0.186461 1.71106,-0.361955 0.329036,-0.08775 0.504529,-0.01097 0.52648,0.230335 l 0.09871,1.217485 c 0.02192,0.329049 -0.131635,0.526478 -0.46067,0.59229"
         inkscape:connector-curvature="0" />
      <path
         id="path3930"
         style="font-size:32.90499878px;fill:#0f7964;font-family:NanumGothic"
         d="m 109.8848,23.030565 c -1e-5,-1.031015 -0.1426,-1.996227 -0.42776,-2.89564 -0.26326,-0.899392 -0.63618,-1.700079 -1.11877,-2.402065 -1.14072,-1.403932 -2.62145,-2.105905 -4.44218,-2.105919 -0.92135,1.4e-5 -1.75494,0.186476 -2.50078,0.559385 -0.72391,0.351 -1.37105,0.866511 -1.941392,1.546534 -0.504549,0.701986 -0.899408,1.502673 -1.18458,2.402065 -0.263244,0.899413 -0.394864,1.864625 -0.39486,2.89564 -4e-6,1.052967 0.131616,2.029147 0.39486,2.928545 0.285172,0.899407 0.680031,1.689126 1.18458,2.36916 1.162632,1.425884 2.643362,2.138825 4.442172,2.138825 0.92133,0 1.74396,-0.186461 2.46788,-0.559385 0.74583,-0.372922 1.40393,-0.899402 1.9743,-1.57944 0.48259,-0.680034 0.85551,-1.469753 1.11877,-2.36916 0.28516,-0.899398 0.42775,-1.875578 0.42776,-2.928545 m 2.43497,0 c -2e-5,1.29427 -0.18648,2.500785 -0.55938,3.61955 -0.37294,1.096836 -0.86652,2.062049 -1.48073,2.89564 -0.7678,0.92134 -1.68914,1.634281 -2.76402,2.138825 -1.05297,0.504542 -2.25949,0.756813 -3.61955,0.756815 -1.36008,-2e-6 -2.57756,-0.252273 -3.65245,-0.756815 -1.074904,-0.504544 -1.996243,-1.217485 -2.764022,-2.138825 -0.61423,-0.833591 -1.107804,-1.798804 -1.480725,-2.89564 -0.350988,-1.118765 -0.526482,-2.32528 -0.52648,-3.61955 -2e-6,-2.654326 0.669066,-4.826054 2.007205,-6.515189 1.535561,-1.908475 3.674382,-2.862719 6.416472,-2.862735 1.382,1.6e-5 2.59948,0.24132 3.65246,0.72391 1.05294,0.460685 1.96331,1.173626 2.73111,2.138825 1.36006,1.733008 2.04009,3.904736 2.04011,6.515189"
         inkscape:connector-curvature="0" />
      <path
         id="path3932"
         style="font-size:32.90499878px;fill:#0f7964;font-family:NanumGothic"
         d="m 119.11363,31.454245 c -1e-5,0.307112 -0.15356,0.460669 -0.46067,0.46067 l -1.44782,0 c -0.30712,-1e-6 -0.46067,-0.153558 -0.46067,-0.46067 l 0,-16.880264 c 0,-0.307097 0.15355,-0.460654 0.46067,-0.46067 l 1.44782,0 c 0.30711,1.6e-5 0.46066,0.153573 0.46067,0.46067 l 0,16.880264 M 116.3167,7.8942658 c 0,-0.4387102 0.15356,-0.8116332 0.46067,-1.1187699 0.30711,-0.329026 0.68004,-0.4935508 1.11877,-0.493575 0.43873,2.42e-5 0.81166,0.164549 1.11877,0.493575 0.32905,0.3071367 0.49357,0.6800597 0.49358,1.1187699 -10e-6,0.4387555 -0.16453,0.8116785 -0.49358,1.11877 -0.30711,0.3071345 -0.68004,0.460691 -1.11877,0.46067 -0.43873,2.1e-5 -0.81166,-0.1535355 -1.11877,-0.46067 -0.30711,-0.3070915 -0.46067,-0.6800145 -0.46067,-1.11877"
         inkscape:connector-curvature="0" />
      <path
         id="path3934"
         style="font-size:32.90499878px;fill:#0f7964;font-family:NanumGothic"
         d="m 138.82989,31.454245 c -2e-5,0.307112 -0.15357,0.460669 -0.46067,0.46067 l -1.3162,0 c -0.30713,-1e-6 -0.46068,-0.153558 -0.46067,-0.46067 l 0,-10.365075 c -1e-5,-2.018161 -0.36197,-3.444043 -1.08586,-4.277649 -0.72393,-0.855516 -1.74398,-1.28328 -3.06017,-1.283295 -1.77688,1.5e-5 -3.13695,0.493589 -4.08022,1.480725 -0.92134,0.987162 -1.38201,2.369171 -1.38201,4.146029 l 0,10.299265 c 0,0.307112 -0.15356,0.460669 -0.46067,0.46067 l -1.3162,0 c -0.30712,-1e-6 -0.46067,-0.153558 -0.46067,-0.46067 l 0,-13.162 c 0,-0.943263 -0.011,-1.678141 -0.0329,-2.204634 -1e-5,-0.526466 -0.0219,-1.031008 -0.0658,-1.51363 -0.0219,-0.153541 0.011,-0.263224 0.0987,-0.32905 0.10968,-0.08773 0.23033,-0.131604 0.36196,-0.13162 l 1.18458,0 c 0.3071,1.6e-5 0.46066,0.153573 0.46067,0.46067 l 0,1.809775 c 0.61422,-0.943262 1.34909,-1.634266 2.20463,-2.073015 0.87746,-0.438717 2.07301,-0.658084 3.58665,-0.6581 2.08397,1.6e-5 3.65244,0.603274 4.70541,1.809775 1.05294,1.20653 1.57942,2.90662 1.57944,5.100274 l 0,10.891555"
         inkscape:connector-curvature="0" />
    </g>
    <g
       id="g15">
      <path
         d="m 148.747,7.694 -1.923,1.703 1.781,1.908 1.959,-1.773 z"
         id="path17"
         inkscape:connector-curvature="0"
         style="fill:#0f7964" />
    </g>
    <path
       d="m 24.137987,31.443 3.626,-23.1089999"
       id="path5"
       inkscape:connector-curvature="0"
       style="fill-opacity:0;stroke:#0f7964;stroke-width:1.75999999;stroke-linecap:round;stroke-linejoin:round" />
    <path
       d="m 22.111987,9.9330001 -0.196,0 c -7.197,0 -13.0309999,5.8339999 -13.0309999,13.0309999 l 0,0.195 c 0,7.197 5.8339999,13.031 13.0309999,13.031 l 0.196,0 c 7.195,0 13.029,-5.834 13.029,-13.031 l 0,-0.195 c 0,-7.197 -5.834,-13.0309999 -13.029,-13.0309999 z"
       id="path7"
       inkscape:connector-curvature="0"
       style="fill:#0f7964" />
    <path
       d="m 19.557987,26.072 c 0,0 1.453,-1.568 -0.818,-3.421 -2.271,-1.851 -4.756,-4.524 -4.756,-4.524"
       id="path9"
       inkscape:connector-curvature="0"
       style="fill-opacity:0;stroke:#0f7964;stroke-width:0.80000001;stroke-linecap:round" />
    <path
       d="m 24.193987,30.74 -7.86,-8.936"
       id="path11-1"
       inkscape:connector-curvature="0"
       style="fill-opacity:0;stroke:#ffffff;stroke-width:1.75999999" />
    <path
       sodipodi:nodetypes="ccsccc"
       inkscape:connector-curvature="0"
       id="path13-9"
       d="M 26.499745,10.686441 23.731737,29.15625 c -0.153939,0.484785 0.208792,1.064065 0.712134,1.137279 0.503343,0.07321 1.016069,-0.378728 1.006616,-0.887279 l 2.719809,-17.981727 c -0.524484,-0.298325 -1.05161,-0.537924 -1.670551,-0.738082 z"
       style="font-size:medium;font-style:normal;font-variant:normal;font-weight:normal;font-stretch:normal;text-indent:0;text-align:start;text-decoration:none;line-height:normal;letter-spacing:normal;word-spacing:normal;text-transform:none;direction:ltr;block-progression:tb;writing-mode:lr-tb;text-anchor:start;baseline-shift:baseline;color:#000000;fill:#ffffff;fill-opacity:1;fill-rule:nonzero;stroke:none;stroke-width:1.75999999;marker:none;visibility:visible;display:inline;overflow:visible;enable-background:accumulate;font-family:Sans;-inkscape-font-specification:Sans" />
    <path
       d="m 13.939987,22.948 c -0.999,-0.999 -0.999,-2.62 0,-3.619 0.999,-0.999 2.62,-0.999 3.619,0 1,0.999 1,2.62 0,3.619 -0.999,0.999 -2.62,0.999 -3.619,0 z"
       id="path15"
       inkscape:connector-curvature="0"
       style="fill:#ffffff" />
    <path
       d="m 26.375987,8.1790001 c -0.999,-0.999 -0.999,-2.6200001 0,-3.6190001 0.999,-1 2.62,-1 3.619,0 0.999,0.999 0.999,2.6200001 0,3.6190001 -0.999,0.999 -2.62,0.999 -3.619,0 z"
       id="path17-5"
       inkscape:connector-curvature="0"
       style="fill:#0f7964" />
    <path
       d="m 22.378987,31.364 c -0.999,-0.999 -0.999,-2.62 0,-3.619 0.999,-1 2.62,-1 3.619,0 1,0.999 1,2.62 0,3.619 -0.999,0.999 -2.62,0.999 -3.619,0 z"
       id="path19-3"
       inkscape:connector-curvature="0"
       style="fill:#ffffff" />
    <g
       transform="translate(-7.2727273,-0.64935065)"
       id="text3131"
       style="font-size:32.90000153px;font-style:normal;font-variant:normal;font-weight:normal;font-stretch:normal;line-height:125%;letter-spacing:0px;word-spacing:0px;fill:#0f7964;fill-opacity:1;stroke:#0f7964;stroke-width:0.5;stroke-miterlimit:4;stroke-opacity:1;stroke-dasharray:none;font-family:NanumGothic;-inkscape-font-specification:NanumGothic">
      <path
         inkscape:connector-curvature="0"
         id="path3907"
         style="font-weight:bold;stroke:#0f7964;stroke-width:0.5;stroke-miterlimit:4;stroke-opacity:1;stroke-dasharray:none;-inkscape-font-specification:NanumGothic Bold"
         d="m 155.97396,11.716283 c -0.63608,2e-5 -1.17344,-0.208346 -1.6121,-0.6251 -0.41674,-0.416712 -0.62511,-0.943112 -0.6251,-1.5792001 -1e-5,-0.6360438 0.20836,-1.1624433 0.6251,-1.5792001 0.43866,-0.4386424 0.97602,-0.6579755 1.6121,-0.658 0.61412,2.45e-5 1.14052,0.2193576 1.5792,0.658 0.46059,0.4167568 0.69089,0.9431563 0.6909,1.5792001 -1e-5,0.6360881 -0.23031,1.1624881 -0.6909,1.5792001 -0.43868,0.416754 -0.96508,0.62512 -1.5792,0.6251 m 0.8883,24.971101 c -0.32901,0.636061 -0.80058,1.118594 -1.4147,1.4476 -0.59221,0.328994 -1.27214,0.493493 -2.0398,0.4935 -0.43867,-7e-6 -0.80057,-0.01097 -1.0857,-0.0329 -0.26321,-7e-6 -0.51544,-0.04387 -0.7567,-0.1316 -0.1974,-0.08774 -0.2961,-0.241273 -0.2961,-0.4606 l 0,-2.1056 c 0,-0.197404 0.1316,-0.296104 0.3948,-0.2961 0.65799,0.109663 1.19536,0.07676 1.6121,-0.0987 0.43866,-0.153537 0.69089,-0.427703 0.7567,-0.8225 0.0439,-0.197403 0.0768,-0.592202 0.0987,-1.1844 0.0219,-0.570268 0.0329,-1.195367 0.0329,-1.8753 l 0,-15.890701 c -1e-5,-0.285117 0.13159,-0.427683 0.3948,-0.4277 l 2.7636,0 c 0.24126,1.7e-5 0.36189,0.142583 0.3619,0.4277 l 0,15.989401 c -1e-5,1.052799 -0.0658,2.006898 -0.1974,2.8623 -0.10968,0.855396 -0.31804,1.557262 -0.6251,2.1056" />
    </g>
  </g>
</svg>
